<svg width="24" height="24" viewBox="0 0 24 24" fill="none" xmlns="http://www.w3.org/2000/svg">
<g clip-path="url(#clip0_64_4517)">
<path d="M15.0494 21.5241C15.0494 21.5241 15.0656 21.5189 15.0736 21.5176C15.1173 21.505 15.3801 21.4235 15.76 21.268C15.7942 21.2543 15.8273 21.2398 15.8615 21.2261C15.9096 21.2057 15.9584 21.1844 16.0089 21.1625C17.2253 20.6313 18.3031 19.8729 19.1977 18.9445C19.1989 18.9423 19.2019 18.9397 19.2043 18.9381C19.302 18.8371 19.3964 18.7341 19.4893 18.6288C19.4893 18.6288 19.4893 18.6288 19.4899 18.6278C19.9353 18.1239 20.3291 17.5756 20.6652 16.9911C20.8264 16.7168 20.995 16.3869 21.1176 16.1063C21.2026 15.9163 21.2814 15.7242 21.3548 15.5289C21.3588 15.5195 21.3634 15.509 21.3673 15.4996L21.3762 15.4742C21.3884 15.4404 21.4017 15.4072 21.4133 15.3746C21.4593 15.2495 21.5053 15.1142 21.5497 14.9692C21.5517 14.9631 21.5531 14.9581 21.5552 14.952C21.5764 14.8826 21.5983 14.8092 21.6187 14.7335C21.6281 14.6996 21.6375 14.6657 21.6458 14.6311C21.6537 14.6021 21.6611 14.5743 21.6696 14.5443C21.6755 14.5214 21.6814 14.4986 21.6862 14.4751C21.7972 14.0406 21.8788 13.5963 21.9309 13.1424C21.9448 13.025 21.9541 12.9356 21.9584 12.8827L21.9655 12.8022L21.972 12.7229C21.972 12.7229 21.9718 12.7155 21.9726 12.7116L21.9743 12.6936C21.9767 12.6541 21.9803 12.6023 21.9821 12.5639L21.9826 12.5453C21.9826 12.5453 21.9839 12.5329 21.9832 12.5267L21.9873 12.4387C21.9889 12.4031 21.9905 12.3574 21.9921 12.3219L21.9947 12.2213C21.9953 12.2027 21.9958 12.1841 21.9953 12.1648C21.9956 12.1592 21.996 12.1535 21.9963 12.1479C21.9962 12.1405 21.9965 12.1349 21.9964 12.1275C21.9971 12.1163 21.9967 12.1044 21.9972 12.0959L21.9977 11.9839C21.9977 11.9562 21.9975 11.9211 21.9976 11.8906C21.9972 11.8612 21.9967 11.8317 21.9962 11.8023L21.9959 11.7977C21.9953 11.7785 21.9953 11.7609 21.9947 11.7417C21.9939 11.7077 21.9924 11.6674 21.991 11.6345L21.9876 11.5597C21.9857 11.525 21.9843 11.4921 21.9824 11.4575C21.9816 11.4513 21.982 11.4456 21.9812 11.4394C21.9799 11.4138 21.9786 11.3883 21.9773 11.3628L21.9744 11.3173L21.9704 11.2611C21.9704 11.2611 21.9697 11.2548 21.9698 11.252L21.9693 11.2327C21.9687 11.2237 21.9683 11.2118 21.9666 11.202C21.9649 11.1748 21.962 11.1469 21.9603 11.1196C21.9591 11.1015 21.9568 11.0827 21.9555 11.0673C21.9528 11.0366 21.9501 11.0059 21.9468 10.9763L21.939 10.8989C21.937 10.8846 21.9352 10.8675 21.9339 10.8522C21.9313 10.8288 21.9288 10.8055 21.9262 10.7822C21.9237 10.7588 21.9205 10.7366 21.9184 10.7149C21.9139 10.6773 21.9087 10.6408 21.9025 10.6037L21.8871 10.5015C21.885 10.4901 21.8839 10.4793 21.8818 10.4678L21.8806 10.4598C21.8755 10.4307 21.8707 10.3987 21.8647 10.3661C21.8568 10.3192 21.8482 10.2735 21.8407 10.2283C21.8354 10.1946 21.8288 10.1631 21.8238 10.134C21.8169 10.0979 21.8094 10.063 21.803 10.0287C21.795 9.99197 21.7887 9.95483 21.7807 9.91815C21.7754 9.89463 21.7705 9.87284 21.7655 9.85105L21.7528 9.78977C21.7487 9.77424 21.7445 9.75872 21.7414 9.74383C21.7368 9.72658 21.7339 9.70887 21.7293 9.69163C21.6834 9.49598 21.6305 9.30219 21.5725 9.10978C21.5593 9.06712 21.5471 9.0251 21.5352 8.98762C21.5219 8.94496 21.5086 8.90231 21.4943 8.85902C21.4862 8.83252 21.4771 8.80539 21.4694 8.78343C21.4482 8.72163 21.4264 8.66093 21.4057 8.60086C21.3973 8.57999 21.3907 8.55866 21.3823 8.5378C21.3508 8.45106 21.3173 8.3676 21.2859 8.28822C21.2701 8.24994 21.2543 8.21166 21.2385 8.17337C21.2401 8.17573 21.241 8.17918 21.2426 8.18154C21.2416 8.17809 21.239 8.1751 21.2381 8.17165C21.2351 8.16412 21.2311 8.15596 21.2281 8.14843C21.2024 8.08693 21.1772 8.02715 21.1533 7.97254C21.1339 7.92783 21.1139 7.8842 21.0939 7.84058C21.0485 7.74 21.0108 7.66137 20.9846 7.60832C20.8552 7.34262 20.7129 7.08407 20.5601 6.83111C20.4714 6.67928 20.3871 6.54752 20.2742 6.38462C19.8143 5.70654 19.2697 5.08446 18.6485 4.53189C18.6485 4.53189 18.6485 4.53189 18.6474 4.53126C18.5856 4.47665 18.5238 4.42203 18.4597 4.36898C18.4522 4.36174 18.443 4.35496 18.4349 4.34882C18.3251 4.25625 18.2123 4.16634 18.0988 4.07752C18.0896 4.07074 18.0811 4.06287 18.0718 4.0561L18.0622 4.0476C18.0622 4.0476 18.0556 4.04381 18.053 4.04082C18.0475 4.03767 18.0438 4.03405 18.04 4.03043C18.0356 4.02791 18.0324 4.02601 18.0297 4.02303C17.9984 3.99908 17.9659 3.97451 17.9339 3.95166C17.8683 3.90361 17.8043 3.85791 17.7414 3.81285C17.7062 3.78811 17.6698 3.76273 17.6339 3.73909C17.5605 3.68943 17.4904 3.64167 17.4223 3.598C17.4191 3.5961 17.4158 3.59421 17.4125 3.59231L17.4037 3.58726C17.3873 3.5778 17.3722 3.56614 17.3558 3.55667C16.999 3.32881 16.7472 3.19945 16.7319 3.19061C16.6075 3.12319 16.4785 3.05889 16.3471 2.99614C16.2547 2.95157 16.1585 2.90621 16.0566 2.8605C16.05 2.85671 16.0434 2.85292 16.0363 2.85023L16.0197 2.84358C15.8153 2.75326 15.5872 2.66096 15.3158 2.56549L15.3103 2.56234C15.3103 2.56234 15.3064 2.56154 15.3036 2.56137C15.3003 2.55947 15.2964 2.55867 15.2925 2.55787C15.1684 2.51536 15.0312 2.47263 14.8883 2.43238C14.7649 2.39613 14.6437 2.36115 14.5381 2.32936L14.1345 2.24068C14.0034 2.21019 13.8761 2.18332 13.7594 2.15822C13.536 2.11089 13.2497 2.07393 12.9442 2.04769C12.9442 2.04769 12.9431 2.04705 12.942 2.04642L12.9398 2.04516C12.6764 2.02427 12.3989 2.0099 12.1323 2.00466L12.1227 2.00352C12.1227 2.00352 12.1154 2.00365 12.1115 2.00285C11.7668 1.99632 11.4433 2.00633 11.1984 2.03408C10.2707 2.13853 10.1944 2.14697 9.60027 2.29235C8.85108 2.47653 8.3393 2.69134 8.09329 2.79424C7.38414 3.09338 6.86874 3.41545 6.69945 3.52183C6.09642 3.89973 5.76207 4.18344 5.4373 4.45812C5.23704 4.62825 5.09819 4.75512 4.94449 4.91277C4.7543 5.10331 4.57017 5.30609 4.39117 5.51766C4.36992 5.54184 4.34694 5.56649 4.32443 5.59285C4.13525 5.80438 3.90494 6.10734 3.75196 6.34706C3.63888 6.52525 3.48124 6.7579 3.37471 6.93988C3.26882 7.12077 3.13321 7.36323 3.04199 7.55404C2.93769 7.765 2.89454 7.85235 2.81569 8.04448C2.71159 8.28034 2.61876 8.51688 2.53783 8.753L2.53656 8.75518C2.50991 8.83164 2.48435 8.90874 2.46115 8.98428C2.43255 9.0742 2.40568 9.16366 2.38513 9.24219C2.37414 9.28395 2.35758 9.34292 2.34052 9.41034C2.33766 9.42035 2.3348 9.43036 2.33302 9.441C2.3147 9.51061 2.2957 9.5915 2.27447 9.68129C2.27047 9.70085 2.26474 9.72087 2.26073 9.74043C2.19893 10.0065 2.13197 10.3397 2.08712 10.7001C2.07674 10.7787 2.06404 10.8865 2.05016 11.0141C2.04686 11.0501 2.04184 11.0866 2.03808 11.1209L2.02346 11.3078C2.02109 11.3473 2.01741 11.3991 2.01567 11.4374L2.01342 11.4842C2.01342 11.4842 2.01309 11.4899 2.01292 11.4927L2.00931 11.5621C2.00774 11.5976 2.00613 11.6433 2.00456 11.6789L2.00106 11.7935C2.00106 11.7935 2.00119 11.8009 2.00102 11.8037C1.99117 12.25 2.0112 12.6697 2.05529 13.0655L2.05982 13.1031C2.06406 13.1362 2.06795 13.1749 2.07294 13.2142C2.07387 13.2177 2.07307 13.2216 2.07399 13.225C2.07759 13.2592 2.08292 13.2929 2.08514 13.3219L2.1161 13.5409C2.13225 13.6392 2.15546 13.7707 2.17224 13.8679C2.18828 13.9588 2.21111 14.0682 2.23492 14.1709L2.23602 14.1715C2.23602 14.1715 2.23475 14.1737 2.23522 14.1754C2.24735 14.2276 2.25839 14.2792 2.26931 14.3234C2.30143 14.4571 2.35074 14.6343 2.38632 14.7671C2.42281 14.9033 2.48449 15.0818 2.52788 15.2162C2.62964 15.4995 2.77624 15.8743 2.89887 16.1492C2.99451 16.3648 3.1337 16.6463 3.25274 16.8492C3.28304 16.9002 3.3149 16.9536 3.34895 17.0083C3.44453 17.1684 3.54495 17.3328 3.62889 17.4702L3.74045 17.628C3.82616 17.7547 3.91423 17.8799 4.00528 18.0025L4.04963 18.0645C4.15342 18.2105 4.29766 18.3798 4.43102 18.5326C4.4871 18.597 4.54427 18.6621 4.60208 18.7261C4.75633 18.8983 4.95675 19.1116 5.12379 19.2591C5.12972 19.264 5.13565 19.2689 5.14095 19.2749C5.28877 19.4127 5.44131 19.5474 5.5981 19.6773C5.63149 19.7053 5.66533 19.7351 5.69544 19.7612L5.87944 19.8995C5.92813 19.9364 5.97682 19.9732 6.0266 20.0107L6.30643 20.2204C6.41302 20.3009 6.61784 20.441 6.95958 20.6368C6.96505 20.64 6.9716 20.6438 6.97707 20.6469L7.01096 20.6665C7.19107 20.7661 7.40195 20.8806 7.65897 21.0086C7.66444 21.0117 7.6699 21.0149 7.676 21.0169C7.92692 21.1429 8.37902 21.347 8.987 21.5362C8.99138 21.5387 8.99811 21.5397 9.00311 21.5411C9.14307 21.584 9.29039 21.6268 9.44523 21.6666L9.44742 21.6679C9.44742 21.6679 9.44633 21.6673 9.44523 21.6666C9.51092 21.6841 9.57834 21.7012 9.64748 21.7178C9.74164 21.7415 9.83534 21.7636 9.91811 21.7793C9.94439 21.7842 9.9735 21.7894 10.0009 21.795C10.1456 21.8246 10.295 21.8511 10.4503 21.8751C10.6609 21.9092 10.8751 21.9396 11.0576 21.9517C11.0576 21.9517 11.0576 21.9517 11.0587 21.9523C11.3687 21.9811 11.6946 21.9972 12.0329 21.9971C12.2403 21.9988 12.446 21.9936 12.6347 21.9772C12.8402 21.9647 13.0502 21.9444 13.2639 21.9177C13.3134 21.9127 13.3596 21.9059 13.4058 21.899C13.6934 21.858 13.9863 21.8026 14.2853 21.7317C14.295 21.73 14.307 21.7268 14.3168 21.7251L14.3375 21.7196C14.5728 21.663 14.8103 21.5975 15.052 21.5197L15.0494 21.5241Z" fill="url(#paint0_radial_64_4517)"/>
<path d="M18.7278 13.2034C16.6088 13.9587 14.9688 14.3799 13.8079 14.467C11.8082 14.6172 10.1895 14.3874 9.40296 14.2376C9.30549 14.2189 9.19656 14.1981 9.09367 14.2483C8.2546 14.6644 9.55394 17.1973 9.83662 17.6117C9.82837 17.5987 9.81759 17.5819 9.80933 17.5689C12.465 16.0404 16.4676 15.6142 18.207 16.6735C19.0458 15.1253 19.3525 13.0821 18.7278 13.2034Z" fill="#412121"/>
<path d="M14.363 16.1541C12.5365 16.371 11.1326 16.8075 9.80982 17.5677C12.201 21.2375 16.2863 20.1006 18.2065 16.6746C17.3683 16.1465 16.0753 15.9717 14.3635 16.1529" fill="#FF3B62"/>
<path d="M8.89017 7.9775C8.45283 7.9936 8.26948 8.59805 8.52864 8.86866C8.53835 8.87817 8.55223 8.89079 8.56243 8.89913C9.14771 9.36159 9.53434 9.66751 10.4859 10.2975C9.06081 11.1723 8.34459 11.6141 8.33728 11.6229C8.04504 11.9701 8.23785 12.4756 8.58851 12.556C8.75346 12.5932 8.87275 12.5267 8.9174 12.5016C11.3906 11.001 11.7639 10.7381 11.809 10.6954C12.0319 10.482 12.036 10.0517 11.7067 9.83802C10.5909 9.14918 9.98344 8.74992 9.10842 8.05744C9.02638 7.99184 8.94405 7.97943 8.8892 7.97983" fill="#412121"/>
<path d="M17.4878 7.06145C17.4263 7.08098 17.3983 7.10894 17.3678 7.17554C17.073 7.83749 16.8617 8.31545 15.9698 9.38359C15.9286 9.4334 15.9059 9.48137 15.8939 9.51331C15.799 9.76767 15.8911 10.1341 16.2051 10.2827C17.0552 10.6476 17.8576 10.9927 18.7584 11.4526C18.7953 11.4721 18.8246 11.4774 18.8451 11.4805C19.1193 11.5181 19.2752 11.0649 19.12 10.6858C19.0443 10.4999 18.9383 10.4393 18.8941 10.4141C18.4176 10.1828 17.9681 9.96556 17.1034 9.59315C17.9296 8.38697 18.0678 7.94688 18.0891 7.81359C18.1386 7.49788 17.7682 7.01829 17.5051 7.05912C17.4995 7.05951 17.4917 7.06174 17.4873 7.06262" fill="#412121"/>
</g>
<defs>
<radialGradient id="paint0_radial_64_4517" cx="0" cy="0" r="1" gradientUnits="userSpaceOnUse" gradientTransform="translate(10.5982 12.9573) rotate(75.1844) scale(11.4954 11.4954)">
<stop stop-color="#F79F40"/>
<stop offset="0.16" stop-color="#F7A442"/>
<stop offset="0.37" stop-color="#F8B449"/>
<stop offset="0.6" stop-color="#F9CE55"/>
<stop offset="0.77" stop-color="#FBE660"/>
<stop offset="0.91" stop-color="#FBF36F"/>
<stop offset="0.93" stop-color="#FBF672"/>
<stop offset="0.95" stop-color="#FBF676"/>
<stop offset="0.96" stop-color="#FBF782"/>
<stop offset="0.98" stop-color="#FBF897"/>
<stop offset="0.99" stop-color="#FCFAB4"/>
<stop offset="1" stop-color="#FDFBC2"/>
</radialGradient>
<clipPath id="clip0_64_4517">
<rect width="24" height="24" fill="white"/>
</clipPath>
</defs>
</svg>
